<svg version="1" xmlns="http://www.w3.org/2000/svg" width="933.333" height="933.333" viewBox="0 0 700.000000 700.000000"><path d="M344.4 95.1c-4.1 1.2-9.1 6.9-10 11.4-1.1 5.9.4 10.6 4.7 14.7 6.7 6.4 15.1 6.4 21.8 0 6.3-6.1 6.7-14.5 1-21.5-4.2-5.1-10.4-6.7-17.5-4.6zM221.5 209.9c-8 3.6-12.7 10.4-13.1 19.1-.5 9 4.8 17.8 12.6 21l3 1.2v77.6l-2.9 1.2c-3.5 1.4-8.7 6.4-10.7 10.1-5.2 10.1-.9 23.7 9.1 29l4.5 2.4V448.8l-2.9 1.2c-3.6 1.5-8.7 6.4-10.8 10.4-1.9 3.7-2.6 12.8-1.2 16.5 3.3 8.7 10.6 14.2 19.7 14.7 12.5.7 22.2-8 22.8-20.6.5-8.8-5-17.8-12.7-21l-2.9-1.2v-77.6l3.2-1.3c6.9-2.9 12-10.5 12.4-18.9.5-8.9-4.8-17.8-12.5-21l-3.1-1.2v-77.5l2.3-1.1c2-.9 5.6 2.4 47.3 44l45.2 45.1-1.3 3.1c-1.7 4.1-1.3 13.2.8 17.3 5.1 9.7 16.5 14.5 26.4 11l4.1-1.4 45.1 45.1c40.7 40.8 44.9 45.3 43.9 47.1-1.5 2.6-1.9 12.1-.7 15.4 5.8 15.4 26.1 20 36.7 8.2 9.1-10.1 7.4-25.8-3.7-33.1-2.4-1.7-4.8-3-5.3-3-.4 0-.8-17.5-.8-38.9v-38.9l2.8-1.1c14-5.9 17.3-25.3 6.1-36-1.6-1.6-4.3-3.4-5.9-4.1l-3-1.2v-77.6l2.8-1.1c13.7-5.8 17.3-24.9 6.6-35.4-4.2-4.2-8.2-5.9-14.3-6.3-13-.8-23.4 9.6-22.7 22.6.4 8.4 5.4 16 12.5 19l3.1 1.2v77.6l-2.9 1.2c-7.7 3.2-13.2 12.1-12.7 21 .4 8.5 5.4 16 12.6 19l3 1.2v77.5l-2.2 1.1c-2.1.9-5.7-2.4-47.4-44l-45.2-45.1 1.4-3.2c1.7-4.1 1.2-13.1-1-17.2-2-4-5.8-7.8-9.6-9.8-4.5-2.3-13.1-2.9-17.2-1.2l-3.5 1.5-45.1-45.2c-40.4-40.4-45-45.3-44-47.1 1.9-3.3 1.9-12.6-.1-17-2.1-4.6-6.2-9-10.6-11.3-4.5-2.3-13.2-2.5-18-.3z"/><path d="M343.3 215.5c-10.4 4.7-12.1 19.6-3 26.9 3.3 2.6 4.6 3 9.7 3.1 5 0 6.3-.4 9.7-3.1 8.5-6.8 8.1-19-.8-25.6-3.3-2.5-11.5-3.2-15.6-1.3zM583.9 327.3c-6.6 3-10.5 9.7-9.5 16.5 1.7 12.4 15.4 18.2 25.2 10.7 14.4-11 .8-34.6-15.7-27.2zM103.2 337.6c-10.3 5.3-12 19.5-3.1 26.6 7.1 5.7 17 4.4 22.7-3 2.1-2.8 2.6-4.5 2.7-9.3 0-6.1-1.6-9.4-6.6-13.1-3.6-2.7-11.6-3.3-15.7-1.2zM345.5 454.7c-3.3.8-8.1 4.9-9.8 8.4-1 2.1-1.4 5.2-1.2 8.2 1 14.5 18.7 19.7 27.9 8.4 2.7-3.4 3.1-4.7 3.1-9.7-.1-4.6-.6-6.4-2.7-9.2-4.3-5.6-10.5-7.7-17.3-6.1zM344 575.1c-8.3 3.5-12.2 13.5-8.4 21.6 5.1 10.5 19.4 12.1 26.8 3 2.7-3.4 3.1-4.7 3.1-9.6-.1-6.2-2.2-10.4-7-13.5-3.2-2.1-11.2-2.9-14.5-1.5z"/></svg>