<svg width="350" height="350" xmlns="http://www.w3.org/2000/svg" xmlns:xlink="http://www.w3.org/1999/xlink">
  <defs>
    <circle id="a" cx="5" cy="125" r="5"/>
    <circle id="b" cx="5" cy="5" r="5"/>
    <circle id="c" cx="125" cy="5" r="5"/>
    <circle id="d" cx="5" cy="65" r="5"/>
    <circle id="e" cx="125" cy="65" r="5"/>
    <circle id="f" cx="65" cy="65" r="5"/>
    <circle id="g" cx="125" cy="125" r="5"/>
  </defs>
  <g fill="none" fill-rule="evenodd">
    <circle stroke="#F50057" stroke-width="6" fill="#F50057" cx="175" cy="115" r="5"/>
    <circle stroke="#F50057" stroke-width="6" fill="#F50057" cx="175" cy="235" r="5"/>
    <circle stroke="#F50057" stroke-width="6" fill="#F50057" cx="175" cy="295" r="5"/>
    <circle stroke="#F50057" stroke-width="6" fill="#F50057" cx="295" cy="171" r="5"/>
    <circle stroke="#F50057" stroke-width="6" fill="#F50057" cx="175" cy="55" r="5"/>
    <circle stroke="#F50057" stroke-width="6" fill="#F50057" cx="55" cy="176" r="5"/>
    <path d="M115 235V115M235 235V115" stroke="#F50057" stroke-width="6" stroke-linecap="round"/>
    <path d="M115 115l120 120" stroke="#F50057" stroke-width="6" stroke-linecap="square"/>
    <g transform="translate(110 110)">
      <use fill="#FFF" xlink:href="#a"/>
      <circle stroke="#F50057" stroke-width="6" cx="5" cy="125" r="8"/>
    </g>
    <g transform="translate(110 110)">
      <use fill="#FFF" xlink:href="#b"/>
      <circle stroke="#F50057" stroke-width="6" cx="5" cy="5" r="8"/>
    </g>
    <g transform="translate(110 110)">
      <use fill="#FFF" xlink:href="#c"/>
      <circle stroke="#F50057" stroke-width="6" cx="125" cy="5" r="8"/>
    </g>
    <g transform="translate(110 110)">
      <use fill="#FFF" xlink:href="#d"/>
      <circle stroke="#F50057" stroke-width="6" cx="5" cy="65" r="8"/>
    </g>
    <g transform="translate(110 110)">
      <use fill="#FFF" xlink:href="#e"/>
      <circle stroke="#F50057" stroke-width="6" cx="125" cy="65" r="8"/>
    </g>
    <g transform="translate(110 110)">
      <use fill="#FFF" xlink:href="#f"/>
      <circle stroke="#F50057" stroke-width="6" cx="65" cy="65" r="8"/>
    </g>
    <g transform="translate(110 110)">
      <use fill="#FFF" xlink:href="#g"/>
      <circle stroke="#F50057" stroke-width="6" cx="125" cy="125" r="8"/>
    </g>
  </g>
</svg>
