<svg width="1028" height="256" xmlns="http://www.w3.org/2000/svg" xmlns:xlink="http://www.w3.org/1999/xlink">
  <defs>
    <circle id="a" cx="5" cy="125" r="5"/>
    <circle id="b" cx="5" cy="5" r="5"/>
    <circle id="c" cx="125" cy="5" r="5"/>
    <circle id="d" cx="5" cy="65" r="5"/>
    <circle id="e" cx="125" cy="65" r="5"/>
    <circle id="f" cx="65" cy="65" r="5"/>
    <circle id="g" cx="125" cy="125" r="5"/>
  </defs>
  <g fill="none" fill-rule="evenodd">
    <circle stroke="#F50057" stroke-width="6" fill="#F50057" cx="128" cy="68" r="5"/>
    <circle stroke="#F50057" stroke-width="6" fill="#F50057" cx="128" cy="188" r="5"/>
    <circle stroke="#F50057" stroke-width="6" fill="#F50057" cx="128" cy="248" r="5"/>
    <circle stroke="#F50057" stroke-width="6" fill="#F50057" cx="248" cy="124" r="5"/>
    <circle stroke="#F50057" stroke-width="6" fill="#F50057" cx="128" cy="8" r="5"/>
    <circle stroke="#F50057" stroke-width="6" fill="#F50057" cx="8" cy="129" r="5"/>
    <path d="M68 188V68M188 188V68" stroke="#F50057" stroke-width="6" stroke-linecap="round"/>
    <path d="M68 68l120 120" stroke="#F50057" stroke-width="6" stroke-linecap="square"/>
    <g transform="translate(63 63)">
      <use fill="#FFF" xlink:href="#a"/>
      <circle stroke="#F50057" stroke-width="6" cx="5" cy="125" r="8"/>
    </g>
    <g transform="translate(63 63)">
      <use fill="#FFF" xlink:href="#b"/>
      <circle stroke="#F50057" stroke-width="6" cx="5" cy="5" r="8"/>
    </g>
    <g transform="translate(63 63)">
      <use fill="#FFF" xlink:href="#c"/>
      <circle stroke="#F50057" stroke-width="6" cx="125" cy="5" r="8"/>
    </g>
    <g transform="translate(63 63)">
      <use fill="#FFF" xlink:href="#d"/>
      <circle stroke="#F50057" stroke-width="6" cx="5" cy="65" r="8"/>
    </g>
    <g transform="translate(63 63)">
      <use fill="#FFF" xlink:href="#e"/>
      <circle stroke="#F50057" stroke-width="6" cx="125" cy="65" r="8"/>
    </g>
    <g transform="translate(63 63)">
      <use fill="#FFF" xlink:href="#f"/>
      <circle stroke="#F50057" stroke-width="6" cx="65" cy="65" r="8"/>
    </g>
    <g transform="translate(63 63)">
      <use fill="#FFF" xlink:href="#g"/>
      <circle stroke="#F50057" stroke-width="6" cx="125" cy="125" r="8"/>
    </g>
    <path d="M389.824219 175h-16.800781l-43.097657-68.597656V175H313.125V78.3125h16.800781l43.230469 68.863281V78.3125h16.667969V175zm49.9375 1.328125c-10.226614 0-18.516245-3.220671-24.869141-9.662109-6.352896-6.441439-9.529297-15.018827-9.529297-25.732422v-1.992188c0-7.171911 1.38345-13.58005 4.150391-19.224609 2.766941-5.64456 6.651668-10.038396 11.654297-13.181641 5.002629-3.143245 10.580698-4.714844 16.734375-4.714844 9.783903 0 17.343072 3.121063 22.677734 9.363282 5.334662 6.242218 8.001953 15.074161 8.001953 26.496094v6.507812h-46.949219c.486982 5.932321 2.468082 10.624983 5.94336 14.078125 3.475278 3.453142 7.846979 5.179687 13.115234 5.179687 7.393266 0 13.41404-2.988251 18.0625-8.964843l8.699219 8.300781c-2.877619 4.294292-6.718075 7.625639-11.521484 9.994141-4.80341 2.368501-10.19333 3.552734-16.169922 3.552734zm-1.925781-61.558594c-4.427106 0-8.00194 1.549464-10.72461 4.648438-2.72267 3.098974-4.460283 7.415337-5.21289 12.949219h30.746093v-1.195313c-.354168-5.401069-1.792956-9.485012-4.316406-12.251953-2.52345-2.766941-6.020811-4.150391-10.492187-4.150391zm86.792968 53.191407c-4.737003 5.578152-11.466102 8.367187-20.1875 8.367187-7.791705 0-13.690735-2.279925-17.697265-6.839844-4.006531-4.559918-6.009766-11.156207-6.009766-19.789062v-46.550781h16.136719V149.5c0 9.119837 3.785118 13.679688 11.355468 13.679688 7.835977 0 13.126289-2.81117 15.871094-8.433594v-51.597656h16.136719V175h-15.207031l-.398438-7.039062zm69.660156-50.070313c-2.12501-.354168-4.316394-.53125-6.574218-.53125-7.393266 0-12.373685 2.833305-14.941406 8.5V175h-16.136719v-71.851562h15.40625l.398437 8.035156c3.895853-6.242219 9.296841-9.363282 16.203125-9.363282 2.302095 0 4.205722.309893 5.710938.929688l-.066407 15.140625zm4.78125 20.519531c0-7.039097 1.394518-13.380831 4.183594-19.02539 2.789077-5.64456 6.707006-9.983058 11.753906-13.015625 5.046901-3.032568 10.846322-4.548829 17.398438-4.548829 9.695361 0 17.564423 3.121063 23.607422 9.363282 6.042999 6.242218 9.30794 14.520782 9.794922 24.835937l.066406 3.785157c0 7.083368-1.361315 13.414034-4.083984 18.992187-2.72267 5.578153-6.618465 9.894516-11.6875 12.949219-5.069036 3.054703-10.923795 4.582031-17.564454 4.582031-10.138071 0-18.25062-3.375617-24.33789-10.126953s-9.13086-15.749293-9.13086-26.994141v-.796875zm16.136719 1.394532c0 7.393266 1.527329 13.181619 4.582031 17.365234 3.054703 4.183615 7.304661 6.27539 12.75 6.27539 5.44534 0 9.68423-2.124978 12.716797-6.375 3.032568-4.250021 4.548829-10.470011 4.548829-18.660156 0-7.260453-1.560532-13.015603-4.681641-17.265625-3.121109-4.250021-7.359999-6.375-12.716797-6.375-5.268256 0-9.451807 2.091776-12.550781 6.275391s-4.648438 10.436807-4.648438 18.759766zM757.78125 175h-16.800781l-43.097657-68.597656V175h-16.800781V78.3125h16.800781l43.230469 68.863281V78.3125h16.667969V175zm61.226562 0c-.708336-1.372403-1.328122-3.608057-1.859374-6.707031-5.135443 5.356797-11.421838 8.035156-18.859376 8.035156-7.216181 0-13.104143-2.058573-17.664062-6.175781-4.559919-4.117208-6.839844-9.208303-6.839844-15.273438 0-7.658892 2.844373-13.535787 8.533203-17.630859 5.688831-4.095073 13.823515-6.142578 24.404297-6.142578h9.894532v-4.714844c0-3.718769-1.040355-6.695952-3.121094-8.931641-2.08074-2.235688-5.246073-3.353515-9.496094-3.353515-3.674498 0-6.684884.91861-9.03125 2.755859-2.346366 1.837249-3.519531 4.172512-3.519531 7.00586H775.3125c0-3.940124 1.305977-7.625634 3.917969-11.056641 2.611992-3.431007 6.164691-6.120433 10.658203-8.068359 4.493512-1.947927 9.507134-2.921876 15.041016-2.921876 8.4115 0 15.118464 2.113912 20.121093 6.341797 5.002629 4.227886 7.570312 10.171186 7.703125 17.830079v32.40625c0 6.463573.907543 11.621074 2.722656 15.472656V175h-16.46875zm-17.730468-11.621094c3.187516 0 6.186835-.774732 8.998047-2.324218 2.811212-1.549487 4.925123-3.630196 6.341797-6.242188v-13.546875h-8.699219c-5.976593 0-10.470037 1.040354-13.480469 3.121094-3.010432 2.080739-4.515625 5.02472-4.515625 8.832031 0 3.098974 1.029287 5.567048 3.087891 7.404297s4.814435 2.755859 8.267578 2.755859zm63.550781-60.230468l.464844 7.503906c5.0469-5.888051 11.953081-8.832032 20.71875-8.832032 9.606819 0 16.180972 3.674443 19.722656 11.023438 5.223984-7.348995 12.572869-11.023438 22.046875-11.023438 7.924519 0 13.823548 2.191385 17.697266 6.574219 3.873717 4.382835 5.854817 10.846312 5.943359 19.390625V175h-16.136719v-46.75c0-4.559919-.996084-7.902333-2.988281-10.027344-1.992197-2.12501-5.290342-3.1875-9.894531-3.1875-3.674498 0-6.673817.985016-8.998047 2.955078s-3.951167 4.548813-4.880859 7.736328L908.589844 175h-16.136719v-47.28125c-.221355-8.455771-4.537718-12.683594-12.949219-12.683594-6.463574 0-11.045559 2.634088-13.746094 7.902344V175h-16.136718v-71.851562h15.207031zm134.804687 73.179687c-10.226613 0-18.516244-3.220671-24.86914-9.662109-6.352896-6.441439-9.529297-15.018827-9.529297-25.732422v-1.992188c0-7.171911 1.38345-13.58005 4.150391-19.224609 2.766941-5.64456 6.651667-10.038396 11.654296-13.181641 5.00263-3.143245 10.580699-4.714844 16.734376-4.714844 9.783902 0 17.343072 3.121063 22.677732 9.363282 5.33466 6.242218 8.00195 15.074161 8.00195 26.496094v6.507812h-46.949214c.486982 5.932321 2.468082 10.624983 5.94336 14.078125 3.475277 3.453142 7.846978 5.179687 13.115234 5.179687 7.39327 0 13.41404-2.988251 18.0625-8.964843l8.69922 8.300781c-2.87762 4.294292-6.71808 7.625639-11.52149 9.994141-4.80341 2.368501-10.19333 3.552734-16.169918 3.552734zm-1.925781-61.558594c-4.427105 0-8.001939 1.549464-10.724609 4.648438-2.72267 3.098974-4.460283 7.415337-5.212891 12.949219h30.746089v-1.195313c-.35416-5.401069-1.79295-9.485012-4.3164-12.251953-2.52345-2.766941-6.02081-4.150391-10.492189-4.150391z" fill="#24292E"/>
  </g>
</svg>
