<?xml version="1.0" encoding="UTF-8"?>
<svg width="1069px" height="256px" viewBox="0 0 1069 256" version="1.1" xmlns="http://www.w3.org/2000/svg" xmlns:xlink="http://www.w3.org/1999/xlink">
    <!-- Generator: Sketch 46.2 (44496) - http://www.bohemiancoding.com/sketch -->
    <title>logo copy</title>
    <desc>Created with Sketch.</desc>
    <defs>
        <circle id="path-1" cx="5" cy="125" r="5"></circle>
        <circle id="path-2" cx="5" cy="5" r="5"></circle>
        <circle id="path-3" cx="125" cy="5" r="5"></circle>
        <circle id="path-4" cx="5" cy="65" r="5"></circle>
        <circle id="path-5" cx="125" cy="65" r="5"></circle>
        <circle id="path-6" cx="65" cy="65" r="5"></circle>
        <circle id="path-7" cx="125" cy="125" r="5"></circle>
    </defs>
    <g id="Page-1" stroke="none" stroke-width="1" fill="none" fill-rule="evenodd">
        <g id="logo-copy">
            <circle id="Oval-Copy-45" stroke="#F50057" stroke-width="6" fill="#F50057" cx="128" cy="68" r="5"></circle>
            <circle id="Oval-Copy-46" stroke="#F50057" stroke-width="6" fill="#F50057" cx="128" cy="188" r="5"></circle>
            <circle id="Oval-Copy-47" stroke="#F50057" stroke-width="6" fill="#F50057" cx="128" cy="248" r="5"></circle>
            <circle id="Oval-Copy-48" stroke="#F50057" stroke-width="6" fill="#F50057" cx="248" cy="124" r="5"></circle>
            <circle id="Oval-Copy-49" stroke="#F50057" stroke-width="6" fill="#F50057" cx="128" cy="8" r="5"></circle>
            <circle id="Oval-Copy-50" stroke="#F50057" stroke-width="6" fill="#F50057" cx="8" cy="129" r="5"></circle>
            <g id="Group" transform="translate(63.000000, 63.000000)">
                <path d="M5,125 L5,5" id="Line" stroke="#F50057" stroke-width="6" stroke-linecap="round"></path>
                <path d="M125,125 L125,5" id="Line-Copy" stroke="#F50057" stroke-width="6" stroke-linecap="round"></path>
                <path d="M5,5 L125,125" id="Line-2" stroke="#F50057" stroke-width="6" stroke-linecap="square"></path>
                <g id="Oval-Copy-38">
                    <use fill="#FFFFFF" fill-rule="evenodd" xlink:href="#path-1"></use>
                    <circle stroke="#F50057" stroke-width="6" cx="5" cy="125" r="8"></circle>
                </g>
                <g id="Oval-Copy-39">
                    <use fill="#FFFFFF" fill-rule="evenodd" xlink:href="#path-2"></use>
                    <circle stroke="#F50057" stroke-width="6" cx="5" cy="5" r="8"></circle>
                </g>
                <g id="Oval-Copy-43">
                    <use fill="#FFFFFF" fill-rule="evenodd" xlink:href="#path-3"></use>
                    <circle stroke="#F50057" stroke-width="6" cx="125" cy="5" r="8"></circle>
                </g>
                <g id="Oval-Copy-40">
                    <use fill="#FFFFFF" fill-rule="evenodd" xlink:href="#path-4"></use>
                    <circle stroke="#F50057" stroke-width="6" cx="5" cy="65" r="8"></circle>
                </g>
                <g id="Oval-Copy-44">
                    <use fill="#FFFFFF" fill-rule="evenodd" xlink:href="#path-5"></use>
                    <circle stroke="#F50057" stroke-width="6" cx="125" cy="65" r="8"></circle>
                </g>
                <g id="Oval-Copy-41">
                    <use fill="#FFFFFF" fill-rule="evenodd" xlink:href="#path-6"></use>
                    <circle stroke="#F50057" stroke-width="6" cx="65" cy="65" r="8"></circle>
                </g>
                <g id="Oval-Copy-42">
                    <use fill="#FFFFFF" fill-rule="evenodd" xlink:href="#path-7"></use>
                    <circle stroke="#F50057" stroke-width="6" cx="125" cy="125" r="8"></circle>
                </g>
            </g>
            <path d="M393.929688,178 L380.359375,178 L328.820312,99.109375 L328.820312,178 L315.25,178 L315.25,75.625 L328.820312,75.625 L380.5,154.867188 L380.5,75.625 L393.929688,75.625 L393.929688,178 Z M447.4375,179.40625 C437.124948,179.40625 428.734407,176.019565 422.265625,169.246094 C415.796843,162.472622 412.5625,153.414119 412.5625,142.070312 L412.5625,139.679688 C412.5625,132.132775 414.003892,125.394561 416.886719,119.464844 C419.769546,113.535127 423.800755,108.894548 428.980469,105.542969 C434.160182,102.191389 439.773407,100.515625 445.820312,100.515625 C455.710987,100.515625 463.39841,103.773405 468.882812,110.289062 C474.367215,116.80472 477.109375,126.132752 477.109375,138.273438 L477.109375,143.6875 L425.570312,143.6875 C425.757813,151.187538 427.949198,157.246071 432.144531,161.863281 C436.339865,166.480492 441.671843,168.789062 448.140625,168.789062 C452.734398,168.789062 456.624984,167.851572 459.8125,165.976562 C463.000016,164.101553 465.789051,161.617203 468.179688,158.523438 L476.125,164.710938 C469.749968,174.507861 460.187564,179.40625 447.4375,179.40625 Z M445.820312,111.203125 C440.570286,111.203125 436.16408,113.113262 432.601562,116.933594 C429.039045,120.753925 426.835942,126.109341 425.992188,133 L464.101562,133 L464.101562,132.015625 C463.726561,125.406217 461.945328,120.285174 458.757812,116.652344 C455.570297,113.019513 451.25784,111.203125 445.820312,111.203125 Z M539.125,170.476562 C534.062475,176.429717 526.632861,179.40625 516.835938,179.40625 C508.726522,179.40625 502.550802,177.050805 498.308594,172.339844 C494.066385,167.628883 491.921875,160.656296 491.875,151.421875 L491.875,101.921875 L504.882812,101.921875 L504.882812,151.070312 C504.882812,162.60162 509.570266,168.367188 518.945312,168.367188 C528.882862,168.367188 535.492171,164.6641 538.773438,157.257812 L538.773438,101.921875 L551.78125,101.921875 L551.78125,178 L539.40625,178 L539.125,170.476562 Z M608.3125,113.59375 C606.34374,113.265623 604.210949,113.101562 601.914062,113.101562 C593.38277,113.101562 587.593765,116.734339 584.546875,124 L584.546875,178 L571.539062,178 L571.539062,101.921875 L584.195312,101.921875 L584.40625,110.710938 C588.671896,103.914029 594.718711,100.515625 602.546875,100.515625 C605.078138,100.515625 606.999993,100.843747 608.3125,101.5 L608.3125,113.59375 Z M615.414062,139.257812 C615.414062,131.80465 616.878892,125.101592 619.808594,119.148438 C622.738296,113.195283 626.81638,108.601579 632.042969,105.367188 C637.269557,102.132796 643.234341,100.515625 649.9375,100.515625 C660.296927,100.515625 668.675749,104.101527 675.074219,111.273438 C681.472688,118.445348 684.671875,127.984315 684.671875,139.890625 L684.671875,140.804688 C684.671875,148.210975 683.25392,154.855439 680.417969,160.738281 C677.582017,166.621123 673.52737,171.203109 668.253906,174.484375 C662.980442,177.765641 656.921909,179.40625 650.078125,179.40625 C639.765573,179.40625 631.410188,175.820348 625.011719,168.648438 C618.613249,161.476527 615.414062,151.984434 615.414062,140.171875 L615.414062,139.257812 Z M628.492188,140.804688 C628.492188,149.24223 630.449199,156.015599 634.363281,161.125 C638.277363,166.234401 643.515592,168.789062 650.078125,168.789062 C656.687533,168.789062 661.937481,166.199245 665.828125,161.019531 C669.718769,155.839818 671.664062,148.585984 671.664062,139.257812 C671.664062,130.914021 669.683614,124.15237 665.722656,118.972656 C661.761699,113.792943 656.500033,111.203125 649.9375,111.203125 C643.515593,111.203125 638.335957,113.757787 634.398438,118.867188 C630.460918,123.976588 628.492188,131.289015 628.492188,140.804688 Z M781.703125,178 L768.132812,178 L716.59375,99.109375 L716.59375,178 L703.023438,178 L703.023438,75.625 L716.59375,75.625 L768.273438,154.867188 L768.273438,75.625 L781.703125,75.625 L781.703125,178 Z M850.609375,178 C849.859371,176.499993 849.250002,173.828144 848.78125,169.984375 C842.734345,176.265656 835.515667,179.40625 827.125,179.40625 C819.624963,179.40625 813.47268,177.285177 808.667969,173.042969 C803.863257,168.80076 801.460938,163.421908 801.460938,156.90625 C801.460938,148.984335 804.472626,142.832053 810.496094,138.449219 C816.519561,134.066384 824.992133,131.875 835.914062,131.875 L848.570312,131.875 L848.570312,125.898438 C848.570312,121.35154 847.210951,117.730482 844.492188,115.035156 C841.773424,112.33983 837.765651,110.992188 832.46875,110.992188 C827.828102,110.992188 823.937516,112.164051 820.796875,114.507812 C817.656234,116.851574 816.085938,119.687483 816.085938,123.015625 L803.007812,123.015625 C803.007812,119.218731 804.355455,115.550799 807.050781,112.011719 C809.746107,108.472639 813.402321,105.671885 818.019531,103.609375 C822.636742,101.546865 827.71091,100.515625 833.242188,100.515625 C842.007856,100.515625 848.874975,102.707009 853.84375,107.089844 C858.812525,111.472678 861.390624,117.507774 861.578125,125.195312 L861.578125,160.210938 C861.578125,167.195347 862.468741,172.749979 864.25,176.875 L864.25,178 L850.609375,178 Z M829.023438,168.085938 C833.101583,168.085938 836.968732,167.031261 840.625,164.921875 C844.281268,162.812489 846.929679,160.070329 848.570312,156.695312 L848.570312,141.085938 L838.375,141.085938 C822.43742,141.085938 814.46875,145.749953 814.46875,155.078125 C814.46875,159.15627 815.828111,162.343739 818.546875,164.640625 C821.265639,166.937511 824.757791,168.085938 829.023438,168.085938 Z M894.203125,101.921875 L894.554688,110.359375 C900.13284,103.796842 907.656203,100.515625 917.125,100.515625 C927.765678,100.515625 935.007793,104.593709 938.851562,112.75 C941.382825,109.093732 944.675761,106.140636 948.730469,103.890625 C952.785177,101.640614 957.578097,100.515625 963.109375,100.515625 C979.796958,100.515625 988.281249,109.351474 988.5625,127.023438 L988.5625,178 L975.554688,178 L975.554688,127.796875 C975.554688,122.359348 974.312512,118.292982 971.828125,115.597656 C969.343738,112.90233 965.171904,111.554688 959.3125,111.554688 C954.484351,111.554688 950.476578,112.996079 947.289062,115.878906 C944.101547,118.761733 942.250003,122.640601 941.734375,127.515625 L941.734375,178 L928.65625,178 L928.65625,128.148438 C928.65625,117.085882 923.242242,111.554688 912.414062,111.554688 C903.88277,111.554688 898.046891,115.187464 894.90625,122.453125 L894.90625,178 L881.898438,178 L881.898438,101.921875 L894.203125,101.921875 Z M1039.75,179.40625 C1029.43745,179.40625 1021.04691,176.019565 1014.57812,169.246094 C1008.10934,162.472622 1004.875,153.414119 1004.875,142.070312 L1004.875,139.679688 C1004.875,132.132775 1006.31639,125.394561 1009.19922,119.464844 C1012.08205,113.535127 1016.11326,108.894548 1021.29297,105.542969 C1026.47268,102.191389 1032.08591,100.515625 1038.13281,100.515625 C1048.02349,100.515625 1055.71091,103.773405 1061.19531,110.289062 C1066.67971,116.80472 1069.42188,126.132752 1069.42188,138.273438 L1069.42188,143.6875 L1017.88281,143.6875 C1018.07031,151.187538 1020.2617,157.246071 1024.45703,161.863281 C1028.65236,166.480492 1033.98434,168.789062 1040.45312,168.789062 C1045.0469,168.789062 1048.93748,167.851572 1052.125,165.976562 C1055.31252,164.101553 1058.10155,161.617203 1060.49219,158.523438 L1068.4375,164.710938 C1062.06247,174.507861 1052.50006,179.40625 1039.75,179.40625 Z M1038.13281,111.203125 C1032.88279,111.203125 1028.47658,113.113262 1024.91406,116.933594 C1021.35154,120.753925 1019.14844,126.109341 1018.30469,133 L1056.41406,133 L1056.41406,132.015625 C1056.03906,125.406217 1054.25783,120.285174 1051.07031,116.652344 C1047.8828,113.019513 1043.57034,111.203125 1038.13281,111.203125 Z" id="NeuroName" fill="#24292E"></path>
        </g>
    </g>
</svg>